<mxfile host="app.diagrams.net" agent="Mozilla/5.0 (Windows NT 10.0; Win64; x64) AppleWebKit/537.36 (KHTML, like Gecko) Chrome/137.0.0.0 Safari/537.36 Edg/137.0.0.0" version="27.1.4">
  <diagram id="f106602c-feb2-e66a-4537-3a34d633f6aa" name="Page-1">
    <mxGraphModel dx="1418" dy="756" grid="1" gridSize="10" guides="1" tooltips="1" connect="1" arrows="1" fold="0" page="1" pageScale="1" pageWidth="1169" pageHeight="827" background="none" math="0" shadow="0">
      <root>
        <mxCell id="0" />
        <mxCell id="1" parent="0" />
        <mxCell id="D6UFKBbYX6-Dkn4sudH9-1" value="&lt;font style=&quot;color: rgb(0, 0, 0);&quot;&gt;&lt;b&gt;CFCA JOB&amp;nbsp;&lt;/b&gt;横向扩展能力&lt;/font&gt;" style="fillColor=#F6F6F6;strokeColor=none;shadow=0;gradientColor=none;fontSize=14;align=left;spacing=10;fontColor=#717171;9E9E9E;verticalAlign=top;spacingTop=-4;fontStyle=0;spacingLeft=40;html=1;container=0;fontFamily=微软雅黑;" vertex="1" parent="1">
          <mxGeometry x="117.82" y="44" width="1400" height="680" as="geometry" />
        </mxCell>
        <mxCell id="D6UFKBbYX6-Dkn4sudH9-2" value="&lt;font style=&quot;color: rgb(51, 0, 0); font-size: 14px;&quot;&gt;&lt;b style=&quot;&quot;&gt;&amp;nbsp; &amp;nbsp; &amp;nbsp; &amp;nbsp; &amp;nbsp; Worker集群横向扩展&lt;/b&gt;&lt;/font&gt;" style="rounded=1;absoluteArcSize=1;arcSize=2;html=1;strokeColor=#4284F3;gradientColor=none;shadow=0;dashed=1;fontSize=12;fontColor=#9E9E9E;align=left;verticalAlign=top;spacing=10;spacingTop=-4;fillColor=none;dashPattern=1 2;strokeWidth=2;" vertex="1" parent="1">
          <mxGeometry x="145.25" y="110" width="234.75" height="610" as="geometry" />
        </mxCell>
        <mxCell id="D6UFKBbYX6-Dkn4sudH9-4" value="" style="group" vertex="1" connectable="0" parent="1">
          <mxGeometry x="155.25" y="145" width="217.36" height="140" as="geometry" />
        </mxCell>
        <mxCell id="D6UFKBbYX6-Dkn4sudH9-5" value="&lt;font style=&quot;color: rgb(51, 0, 0); font-size: 13px;&quot;&gt;&lt;b&gt;&amp;nbsp; &amp;nbsp; &amp;nbsp; &amp;nbsp; &amp;nbsp; 无状态设计模型&lt;/b&gt;&lt;/font&gt;" style="rounded=1;absoluteArcSize=1;arcSize=2;html=1;strokeColor=none;gradientColor=none;shadow=0;dashed=0;fontSize=12;fontColor=#9E9E9E;align=left;verticalAlign=top;spacing=10;spacingTop=-4;fillColor=#EFEBE9;" vertex="1" parent="D6UFKBbYX6-Dkn4sudH9-4">
          <mxGeometry width="214.75" height="130" as="geometry" />
        </mxCell>
        <mxCell id="D6UFKBbYX6-Dkn4sudH9-6" value="&lt;div style=&quot;&quot;&gt;&lt;font style=&quot;background-color: transparent; color: light-dark(rgb(0, 0, 0), rgb(255, 255, 255)); font-size: 19px;&quot;&gt;▸&lt;/font&gt;&lt;font style=&quot;background-color: transparent; color: light-dark(rgb(0, 0, 0), rgb(255, 255, 255));&quot;&gt;&lt;b&gt;Worker无状态架构:&lt;/b&gt;&lt;br&gt;&amp;nbsp; &amp;nbsp; &amp;nbsp;Worker节点完全无状态，支持动态扩缩容&lt;br&gt;&lt;font style=&quot;color: light-dark(rgb(0, 0, 0), rgb(255, 255, 255)); background-color: transparent; font-size: 19px;&quot;&gt;▸&lt;/font&gt;&lt;/font&gt;&lt;span style=&quot;background-color: transparent;&quot;&gt;&lt;b&gt;依赖关系管理&lt;/b&gt;&lt;/span&gt;&lt;b style=&quot;background-color: transparent; color: light-dark(rgb(0, 0, 0), rgb(255, 255, 255));&quot;&gt;:&lt;/b&gt;&lt;/div&gt;&lt;div style=&quot;&quot;&gt;&lt;font style=&quot;background-color: transparent; color: light-dark(rgb(0, 0, 0), rgb(255, 255, 255));&quot;&gt;&lt;font style=&quot;color: light-dark(rgb(0, 0, 0), rgb(255, 255, 255)); background-color: transparent;&quot;&gt;&amp;nbsp; &amp;nbsp; &amp;nbsp;内部任务依赖不与Worker节点绑定，支持任意节点执行&lt;/font&gt;&lt;/font&gt;&lt;/div&gt;" style="text;strokeColor=none;align=left;fillColor=none;html=1;verticalAlign=middle;whiteSpace=wrap;rounded=0;" vertex="1" parent="D6UFKBbYX6-Dkn4sudH9-4">
          <mxGeometry x="15.64" y="24" width="184.36" height="105" as="geometry" />
        </mxCell>
        <mxCell id="D6UFKBbYX6-Dkn4sudH9-7" value="" style="sketch=0;outlineConnect=0;fontColor=#232F3E;gradientColor=none;fillColor=#01A88D;strokeColor=none;dashed=0;verticalLabelPosition=bottom;verticalAlign=top;align=center;html=1;fontSize=12;fontStyle=0;aspect=fixed;pointerEvents=1;shape=mxgraph.aws4.sagemaker_model;" vertex="1" parent="D6UFKBbYX6-Dkn4sudH9-4">
          <mxGeometry x="15.641881638846739" y="6" width="25" height="25" as="geometry" />
        </mxCell>
        <mxCell id="D6UFKBbYX6-Dkn4sudH9-8" value="" style="group" vertex="1" connectable="0" parent="1">
          <mxGeometry x="156.13" y="289" width="213.87" height="130" as="geometry" />
        </mxCell>
        <mxCell id="D6UFKBbYX6-Dkn4sudH9-9" value="&lt;font style=&quot;color: rgb(51, 0, 0); font-size: 13px;&quot;&gt;&lt;b&gt;&amp;nbsp; &amp;nbsp; &amp;nbsp; &amp;nbsp; &amp;nbsp; 自动发现机制&lt;/b&gt;&lt;/font&gt;" style="rounded=1;absoluteArcSize=1;arcSize=2;html=1;strokeColor=none;gradientColor=none;shadow=0;dashed=0;fontSize=12;fontColor=#9E9E9E;align=left;verticalAlign=top;spacing=10;spacingTop=-4;fillColor=#EFEBE9;" vertex="1" parent="D6UFKBbYX6-Dkn4sudH9-8">
          <mxGeometry width="213.86999999999998" height="100" as="geometry" />
        </mxCell>
        <mxCell id="D6UFKBbYX6-Dkn4sudH9-10" value="&lt;div style=&quot;&quot;&gt;&lt;font style=&quot;background-color: transparent; color: light-dark(rgb(0, 0, 0), rgb(255, 255, 255)); font-size: 19px;&quot;&gt;▸&lt;/font&gt;&lt;font style=&quot;background-color: transparent;&quot;&gt;&lt;b style=&quot;color: light-dark(rgb(0, 0, 0), rgb(255, 255, 255));&quot;&gt;自动注册与发现:&lt;/b&gt;&lt;br&gt;&lt;div style=&quot;&quot;&gt;&lt;span style=&quot;color: light-dark(rgb(0, 0, 0), rgb(255, 255, 255)); background-color: transparent;&quot;&gt;&amp;nbsp; &amp;nbsp; &amp;nbsp;&lt;/span&gt;&lt;span style=&quot;background-color: transparent;&quot;&gt;新Worker自动注册到集群并立即参与任务调度&lt;/span&gt;&lt;/div&gt;&lt;/font&gt;&lt;/div&gt;" style="text;strokeColor=none;align=left;fillColor=none;html=1;verticalAlign=middle;whiteSpace=wrap;rounded=0;" vertex="1" parent="D6UFKBbYX6-Dkn4sudH9-8">
          <mxGeometry x="12.98" y="31" width="187.02" height="70" as="geometry" />
        </mxCell>
        <mxCell id="D6UFKBbYX6-Dkn4sudH9-11" value="" style="sketch=0;html=1;aspect=fixed;strokeColor=none;shadow=0;fillColor=#3B8DF1;verticalAlign=top;labelPosition=center;verticalLabelPosition=bottom;shape=mxgraph.gcp2.check" vertex="1" parent="D6UFKBbYX6-Dkn4sudH9-8">
          <mxGeometry x="18.005322610015178" y="11" width="25" height="20" as="geometry" />
        </mxCell>
        <mxCell id="D6UFKBbYX6-Dkn4sudH9-12" value="&lt;font style=&quot;color: rgb(51, 0, 0); font-size: 13px;&quot;&gt;&lt;b&gt;&amp;nbsp; &amp;nbsp; &amp;nbsp; &amp;nbsp; &amp;nbsp; &lt;/b&gt;&lt;/font&gt;&lt;font color=&quot;#330000&quot;&gt;&lt;span style=&quot;font-size: 13px;&quot;&gt;&lt;b&gt;智能资源过滤&lt;/b&gt;&lt;/span&gt;&lt;/font&gt;" style="rounded=1;absoluteArcSize=1;arcSize=2;html=1;strokeColor=none;gradientColor=none;shadow=0;dashed=0;fontSize=12;fontColor=#9E9E9E;align=left;verticalAlign=top;spacing=10;spacingTop=-4;fillColor=#EFEBE9;" vertex="1" parent="1">
          <mxGeometry x="160" y="550" width="210" height="160" as="geometry" />
        </mxCell>
        <mxCell id="D6UFKBbYX6-Dkn4sudH9-13" value="&lt;div style=&quot;&quot;&gt;&lt;font style=&quot;background-color: transparent; color: light-dark(rgb(0, 0, 0), rgb(255, 255, 255)); font-size: 19px;&quot;&gt;▸&lt;/font&gt;&lt;span style=&quot;background-color: transparent;&quot;&gt;&lt;b&gt;多维度阈值控制&lt;/b&gt;&lt;/span&gt;&lt;b style=&quot;background-color: transparent; color: light-dark(rgb(0, 0, 0), rgb(255, 255, 255));&quot;&gt;:&lt;/b&gt;&lt;/div&gt;&lt;div style=&quot;&quot;&gt;&lt;font style=&quot;background-color: transparent; color: light-dark(rgb(0, 0, 0), rgb(255, 255, 255));&quot;&gt;&amp;nbsp; &amp;nbsp; &amp;nbsp;支持设置多参数过滤&lt;br&gt;&lt;font style=&quot;color: light-dark(rgb(0, 0, 0), rgb(255, 255, 255)); background-color: transparent; font-size: 19px;&quot;&gt;▸&lt;/font&gt;&lt;/font&gt;&lt;span style=&quot;background-color: transparent;&quot;&gt;&lt;b&gt;自动资源隔离&lt;/b&gt;&lt;/span&gt;&lt;b style=&quot;background-color: transparent; color: light-dark(rgb(0, 0, 0), rgb(255, 255, 255));&quot;&gt;:&lt;/b&gt;&lt;/div&gt;&lt;div style=&quot;&quot;&gt;&lt;font style=&quot;background-color: transparent; color: light-dark(rgb(0, 0, 0), rgb(255, 255, 255));&quot;&gt;&lt;font style=&quot;color: light-dark(rgb(0, 0, 0), rgb(255, 255, 255)); background-color: transparent;&quot;&gt;&amp;nbsp; &amp;nbsp; &amp;nbsp;自动隔离负载过高节点，防止任务分配到性能瓶颈节点&lt;/font&gt;&lt;/font&gt;&lt;/div&gt;" style="text;strokeColor=none;align=left;fillColor=none;html=1;verticalAlign=middle;whiteSpace=wrap;rounded=0;" vertex="1" parent="1">
          <mxGeometry x="168.37000000000006" y="590" width="182.93" height="110" as="geometry" />
        </mxCell>
        <mxCell id="D6UFKBbYX6-Dkn4sudH9-14" value="&lt;font style=&quot;color: rgb(51, 0, 0); font-size: 13px;&quot;&gt;&lt;b&gt;&amp;nbsp; &amp;nbsp; &amp;nbsp; &amp;nbsp; &amp;nbsp; 健康状态监控&lt;/b&gt;&lt;/font&gt;" style="rounded=1;absoluteArcSize=1;arcSize=2;html=1;strokeColor=none;gradientColor=none;shadow=0;dashed=0;fontSize=12;fontColor=#9E9E9E;align=left;verticalAlign=top;spacing=10;spacingTop=-4;fillColor=#EFEBE9;" vertex="1" parent="1">
          <mxGeometry x="157" y="400" width="210.44974887118866" height="140" as="geometry" />
        </mxCell>
        <mxCell id="D6UFKBbYX6-Dkn4sudH9-15" value="&lt;div style=&quot;&quot;&gt;&lt;font style=&quot;background-color: transparent; color: light-dark(rgb(0, 0, 0), rgb(255, 255, 255)); font-size: 19px;&quot;&gt;▸&lt;/font&gt;&lt;font style=&quot;background-color: transparent; color: light-dark(rgb(0, 0, 0), rgb(255, 255, 255));&quot;&gt;&lt;b&gt;资源指标监控:&lt;/b&gt;&lt;br&gt;&amp;nbsp; &amp;nbsp; &amp;nbsp;定时上报CPU/内存/磁盘等资源指标&lt;br&gt;&lt;font style=&quot;color: light-dark(rgb(0, 0, 0), rgb(255, 255, 255)); background-color: transparent; font-size: 19px;&quot;&gt;▸&lt;/font&gt;&lt;/font&gt;&lt;span style=&quot;background-color: transparent;&quot;&gt;&lt;b&gt;自定义监控周期&lt;/b&gt;&lt;/span&gt;&lt;b style=&quot;background-color: transparent; color: light-dark(rgb(0, 0, 0), rgb(255, 255, 255));&quot;&gt;:&lt;/b&gt;&lt;/div&gt;&lt;div style=&quot;&quot;&gt;&lt;font style=&quot;background-color: transparent; color: light-dark(rgb(0, 0, 0), rgb(255, 255, 255));&quot;&gt;&lt;font style=&quot;color: light-dark(rgb(0, 0, 0), rgb(255, 255, 255)); background-color: transparent;&quot;&gt;&amp;nbsp; &amp;nbsp; &amp;nbsp;支持自定义上报周期，平衡监控精度和系统开销&lt;/font&gt;&lt;/font&gt;&lt;/div&gt;" style="text;strokeColor=none;align=left;fillColor=none;html=1;verticalAlign=middle;whiteSpace=wrap;rounded=0;" vertex="1" parent="1">
          <mxGeometry x="171" y="431.92" width="177.68" height="110" as="geometry" />
        </mxCell>
        <mxCell id="D6UFKBbYX6-Dkn4sudH9-16" value="" style="verticalLabelPosition=bottom;html=1;verticalAlign=top;align=center;strokeColor=none;fillColor=#00BEF2;shape=mxgraph.azure.laptop;pointerEvents=1;aspect=fixed;" vertex="1" parent="1">
          <mxGeometry x="171" y="410" width="25" height="15" as="geometry" />
        </mxCell>
        <mxCell id="D6UFKBbYX6-Dkn4sudH9-17" value="" style="html=1;verticalLabelPosition=bottom;align=center;labelBackgroundColor=#ffffff;verticalAlign=top;strokeWidth=2;strokeColor=#0080F0;shadow=0;dashed=0;shape=mxgraph.ios7.icons.data;aspect=fixed;" vertex="1" parent="1">
          <mxGeometry x="174" y="559" width="20" height="24.25" as="geometry" />
        </mxCell>
        <mxCell id="D6UFKBbYX6-Dkn4sudH9-18" value="&lt;font style=&quot;color: rgb(51, 0, 0); font-size: 14px;&quot;&gt;&lt;b style=&quot;&quot;&gt;&amp;nbsp; &amp;nbsp; &amp;nbsp; &amp;nbsp; &amp;nbsp; Server集群横向扩展&lt;/b&gt;&lt;/font&gt;" style="rounded=1;absoluteArcSize=1;arcSize=2;html=1;strokeColor=#4284F3;gradientColor=none;shadow=0;dashed=1;fontSize=12;fontColor=#9E9E9E;align=left;verticalAlign=top;spacing=10;spacingTop=-4;fillColor=none;dashPattern=1 2;strokeWidth=2;" vertex="1" parent="1">
          <mxGeometry x="420" y="110" width="234.75" height="610" as="geometry" />
        </mxCell>
        <mxCell id="D6UFKBbYX6-Dkn4sudH9-19" value="&lt;font style=&quot;color: rgb(51, 0, 0); font-size: 13px;&quot;&gt;&lt;b&gt;&amp;nbsp; &amp;nbsp; &amp;nbsp; &amp;nbsp; &amp;nbsp;&amp;nbsp;&lt;/b&gt;&lt;/font&gt;&lt;font color=&quot;#330000&quot;&gt;&lt;span style=&quot;font-size: 13px;&quot;&gt;&lt;b&gt;在线扩容&lt;/b&gt;&lt;/span&gt;&lt;/font&gt;" style="rounded=1;absoluteArcSize=1;arcSize=2;html=1;strokeColor=none;gradientColor=none;shadow=0;dashed=0;fontSize=12;fontColor=#9E9E9E;align=left;verticalAlign=top;spacing=10;spacingTop=-4;fillColor=#EFEBE9;" vertex="1" parent="1">
          <mxGeometry x="432.82" y="406.28" width="210" height="160" as="geometry" />
        </mxCell>
        <mxCell id="D6UFKBbYX6-Dkn4sudH9-20" value="&lt;div style=&quot;&quot;&gt;&lt;font style=&quot;background-color: transparent; color: light-dark(rgb(0, 0, 0), rgb(255, 255, 255)); font-size: 19px;&quot;&gt;▸&lt;/font&gt;&lt;span style=&quot;background-color: transparent;&quot;&gt;&lt;b&gt;提升集群可用性&lt;/b&gt;&lt;b style=&quot;color: light-dark(rgb(0, 0, 0), rgb(255, 255, 255));&quot;&gt;:&lt;/b&gt;&lt;/span&gt;&lt;/div&gt;&lt;div style=&quot;&quot;&gt;&lt;font style=&quot;background-color: transparent; color: light-dark(rgb(0, 0, 0), rgb(255, 255, 255));&quot;&gt;&amp;nbsp; &amp;nbsp; &amp;nbsp;增强整个集群的故障恢复能力和冗余度&lt;br&gt;&lt;font style=&quot;color: light-dark(rgb(0, 0, 0), rgb(255, 255, 255)); background-color: transparent; font-size: 19px;&quot;&gt;▸&lt;/font&gt;&lt;/font&gt;&lt;span style=&quot;background-color: transparent;&quot;&gt;&lt;b&gt;提升集群应用容量&lt;/b&gt;&lt;b style=&quot;color: light-dark(rgb(0, 0, 0), rgb(255, 255, 255));&quot;&gt;:&lt;/b&gt;&lt;/span&gt;&lt;/div&gt;&lt;div style=&quot;&quot;&gt;&lt;font style=&quot;background-color: transparent; color: light-dark(rgb(0, 0, 0), rgb(255, 255, 255));&quot;&gt;&lt;font style=&quot;color: light-dark(rgb(0, 0, 0), rgb(255, 255, 255)); background-color: transparent;&quot;&gt;&amp;nbsp; &amp;nbsp; &amp;nbsp;线性地提升整个集群能够承载的应用总数&lt;/font&gt;&lt;/font&gt;&lt;/div&gt;" style="text;strokeColor=none;align=left;fillColor=none;html=1;verticalAlign=middle;whiteSpace=wrap;rounded=0;" vertex="1" parent="1">
          <mxGeometry x="447.00000000000006" y="446.28" width="182.93" height="110" as="geometry" />
        </mxCell>
        <mxCell id="D6UFKBbYX6-Dkn4sudH9-23" value="&lt;font style=&quot;color: rgb(51, 0, 0); font-size: 13px;&quot;&gt;&lt;b&gt;&amp;nbsp; &amp;nbsp; &amp;nbsp; &amp;nbsp; &amp;nbsp; &lt;/b&gt;&lt;/font&gt;&lt;font color=&quot;#330000&quot;&gt;&lt;span style=&quot;font-size: 13px;&quot;&gt;&lt;b&gt;无锁调度设计&lt;/b&gt;&lt;/span&gt;&lt;/font&gt;" style="rounded=1;absoluteArcSize=1;arcSize=2;html=1;strokeColor=none;gradientColor=none;shadow=0;dashed=0;fontSize=12;fontColor=#9E9E9E;align=left;verticalAlign=top;spacing=10;spacingTop=-4;fillColor=#EFEBE9;" vertex="1" parent="1">
          <mxGeometry x="430" y="145" width="214.75" height="145" as="geometry" />
        </mxCell>
        <mxCell id="D6UFKBbYX6-Dkn4sudH9-24" value="&lt;div style=&quot;&quot;&gt;&lt;font style=&quot;background-color: transparent; color: light-dark(rgb(0, 0, 0), rgb(255, 255, 255)); font-size: 19px;&quot;&gt;▸&lt;/font&gt;&lt;font style=&quot;background-color: transparent;&quot;&gt;&lt;b&gt;分布式无锁架构&lt;/b&gt;&lt;b style=&quot;color: light-dark(rgb(0, 0, 0), rgb(255, 255, 255));&quot;&gt;:&lt;/b&gt;&lt;br&gt;&lt;font style=&quot;color: rgb(0, 0, 0);&quot;&gt;&amp;nbsp; &amp;nbsp; &amp;nbsp;&lt;/font&gt;&lt;/font&gt;&lt;span style=&quot;background-color: transparent;&quot;&gt;&lt;font style=&quot;color: rgb(0, 0, 0);&quot;&gt;摒弃传统数据库锁设计，性能不受集群规模限制&lt;/font&gt;&lt;/span&gt;&lt;/div&gt;&lt;div style=&quot;&quot;&gt;&lt;font style=&quot;background-color: transparent;&quot;&gt;&lt;font style=&quot;color: light-dark(rgb(0, 0, 0), rgb(255, 255, 255)); background-color: transparent; font-size: 19px;&quot;&gt;▸&lt;/font&gt;&lt;font style=&quot;background-color: transparent;&quot;&gt;&lt;b&gt;性能线性扩展&lt;/b&gt;&lt;b style=&quot;color: light-dark(rgb(0, 0, 0), rgb(255, 255, 255));&quot;&gt;:&lt;/b&gt;&lt;br&gt;&lt;font style=&quot;color: rgb(0, 0, 0);&quot;&gt;&amp;nbsp; &amp;nbsp; &amp;nbsp;避免分布式锁带来的性能瓶颈，调度性能随节点增加&lt;/font&gt;&lt;font style=&quot;color: rgb(0, 0, 0);&quot;&gt;线性提升&lt;/font&gt;&lt;/font&gt;&lt;br&gt;&lt;br&gt;&lt;/font&gt;&lt;/div&gt;" style="text;strokeColor=none;align=left;fillColor=none;html=1;verticalAlign=middle;whiteSpace=wrap;rounded=0;" vertex="1" parent="1">
          <mxGeometry x="443.86" y="189" width="194.36" height="109" as="geometry" />
        </mxCell>
        <mxCell id="D6UFKBbYX6-Dkn4sudH9-25" value="&lt;font style=&quot;color: rgb(51, 0, 0); font-size: 13px;&quot;&gt;&lt;b&gt;&amp;nbsp; &amp;nbsp; &amp;nbsp; &amp;nbsp; &amp;nbsp; &lt;/b&gt;&lt;/font&gt;&lt;font color=&quot;#330000&quot;&gt;&lt;span style=&quot;font-size: 13px;&quot;&gt;&lt;b&gt;故障转移&lt;/b&gt;&lt;/span&gt;&lt;/font&gt;" style="rounded=1;absoluteArcSize=1;arcSize=2;html=1;strokeColor=none;gradientColor=none;shadow=0;dashed=0;fontSize=12;fontColor=#9E9E9E;align=left;verticalAlign=top;spacing=10;spacingTop=-4;fillColor=#EFEBE9;" vertex="1" parent="1">
          <mxGeometry x="430.88" y="295" width="213.86999999999998" height="100" as="geometry" />
        </mxCell>
        <mxCell id="D6UFKBbYX6-Dkn4sudH9-26" value="&lt;div style=&quot;&quot;&gt;&lt;font style=&quot;background-color: transparent; color: light-dark(rgb(0, 0, 0), rgb(255, 255, 255)); font-size: 19px;&quot;&gt;▸&lt;/font&gt;&lt;span style=&quot;background-color: transparent;&quot;&gt;&lt;b&gt;原主Server故障时自动转移&lt;/b&gt;&lt;/span&gt;&lt;b style=&quot;background-color: transparent; color: light-dark(rgb(0, 0, 0), rgb(255, 255, 255));&quot;&gt;:&lt;/b&gt;&lt;/div&gt;&lt;div style=&quot;&quot;&gt;&lt;font style=&quot;background-color: transparent;&quot;&gt;&lt;div style=&quot;&quot;&gt;&lt;span style=&quot;color: light-dark(rgb(0, 0, 0), rgb(255, 255, 255)); background-color: transparent;&quot;&gt;&amp;nbsp; &amp;nbsp; &amp;nbsp;主Server宕机, 其下worker会自动注册到其它Server中&lt;/span&gt;&lt;/div&gt;&lt;/font&gt;&lt;/div&gt;" style="text;strokeColor=none;align=left;fillColor=none;html=1;verticalAlign=middle;whiteSpace=wrap;rounded=0;" vertex="1" parent="1">
          <mxGeometry x="443.8614871016691" y="321" width="200.88851289833082" height="70" as="geometry" />
        </mxCell>
        <mxCell id="D6UFKBbYX6-Dkn4sudH9-27" value="&lt;font style=&quot;color: rgb(51, 0, 0); font-size: 14px;&quot;&gt;&lt;b style=&quot;&quot;&gt;&amp;nbsp; &amp;nbsp; &amp;nbsp; &amp;nbsp; &amp;nbsp; 智能负载均衡&lt;/b&gt;&lt;/font&gt;" style="rounded=1;absoluteArcSize=1;arcSize=2;html=1;strokeColor=#4284F3;gradientColor=none;shadow=0;dashed=1;fontSize=12;fontColor=#9E9E9E;align=left;verticalAlign=top;spacing=10;spacingTop=-4;fillColor=none;dashPattern=1 2;strokeWidth=2;" vertex="1" parent="1">
          <mxGeometry x="700" y="110" width="234.75" height="610" as="geometry" />
        </mxCell>
        <mxCell id="D6UFKBbYX6-Dkn4sudH9-30" value="&lt;font style=&quot;color: rgb(51, 0, 0); font-size: 13px;&quot;&gt;&lt;b&gt;&amp;nbsp; &amp;nbsp; &amp;nbsp; &amp;nbsp; &amp;nbsp;&amp;nbsp;&lt;/b&gt;&lt;/font&gt;&lt;font color=&quot;#330000&quot;&gt;&lt;span style=&quot;font-size: 13px;&quot;&gt;&lt;b&gt;多策略支持&lt;/b&gt;&lt;/span&gt;&lt;/font&gt;" style="rounded=1;absoluteArcSize=1;arcSize=2;html=1;strokeColor=none;gradientColor=none;shadow=0;dashed=0;fontSize=12;fontColor=#9E9E9E;align=left;verticalAlign=top;spacing=10;spacingTop=-4;fillColor=#EFEBE9;" vertex="1" parent="1">
          <mxGeometry x="711.75" y="426.28000000000003" width="210.44974887118866" height="140" as="geometry" />
        </mxCell>
        <mxCell id="D6UFKBbYX6-Dkn4sudH9-31" value="&lt;div style=&quot;&quot;&gt;&lt;font style=&quot;background-color: transparent; color: light-dark(rgb(0, 0, 0), rgb(255, 255, 255)); font-size: 19px;&quot;&gt;▸&lt;/font&gt;&lt;span style=&quot;background-color: transparent;&quot;&gt;&lt;b&gt;灵活分配策略&lt;/b&gt;&lt;b style=&quot;color: light-dark(rgb(0, 0, 0), rgb(255, 255, 255));&quot;&gt;:&lt;/b&gt;&lt;/span&gt;&lt;/div&gt;&lt;div style=&quot;&quot;&gt;&lt;font style=&quot;background-color: transparent; color: light-dark(rgb(0, 0, 0), rgb(255, 255, 255));&quot;&gt;&amp;nbsp; &amp;nbsp; &amp;nbsp;支持广播、指定、随机和健康优先四种分配策略&lt;/font&gt;&lt;/div&gt;" style="text;strokeColor=none;align=left;fillColor=none;html=1;verticalAlign=middle;whiteSpace=wrap;rounded=0;" vertex="1" parent="1">
          <mxGeometry x="728.1299999999999" y="464.36" width="177.68" height="90" as="geometry" />
        </mxCell>
        <mxCell id="D6UFKBbYX6-Dkn4sudH9-32" value="&lt;font style=&quot;color: rgb(51, 0, 0); font-size: 13px;&quot;&gt;&lt;b&gt;&amp;nbsp; &amp;nbsp; &amp;nbsp; &amp;nbsp; &amp;nbsp;&amp;nbsp;&lt;/b&gt;&lt;/font&gt;&lt;font color=&quot;#330000&quot;&gt;&lt;span style=&quot;font-size: 13px;&quot;&gt;&lt;b&gt;多维资源评估&lt;/b&gt;&lt;/span&gt;&lt;/font&gt;" style="rounded=1;absoluteArcSize=1;arcSize=2;html=1;strokeColor=none;gradientColor=none;shadow=0;dashed=0;fontSize=12;fontColor=#9E9E9E;align=left;verticalAlign=top;spacing=10;spacingTop=-4;fillColor=#EFEBE9;" vertex="1" parent="1">
          <mxGeometry x="710" y="145" width="214.75" height="165" as="geometry" />
        </mxCell>
        <mxCell id="D6UFKBbYX6-Dkn4sudH9-33" value="&lt;div style=&quot;&quot;&gt;&lt;font style=&quot;background-color: transparent; color: light-dark(rgb(0, 0, 0), rgb(255, 255, 255)); font-size: 19px;&quot;&gt;▸&lt;/font&gt;&lt;span style=&quot;background-color: transparent;&quot;&gt;&lt;b&gt;综合资源评分&lt;/b&gt;&lt;b style=&quot;color: light-dark(rgb(0, 0, 0), rgb(255, 255, 255));&quot;&gt;:&lt;/b&gt;&lt;/span&gt;&lt;/div&gt;&lt;div style=&quot;&quot;&gt;&lt;font style=&quot;background-color: transparent; color: light-dark(rgb(0, 0, 0), rgb(255, 255, 255));&quot;&gt;&amp;nbsp; &amp;nbsp; &amp;nbsp;基于CPU、内存、磁盘等指标的综合评分机制&lt;/font&gt;&lt;/div&gt;&lt;div style=&quot;&quot;&gt;&lt;font style=&quot;background-color: transparent;&quot;&gt;&lt;div style=&quot;&quot;&gt;&lt;font style=&quot;color: light-dark(rgb(0, 0, 0), rgb(255, 255, 255)); background-color: transparent; font-size: 19px;&quot;&gt;▸&lt;/font&gt;&lt;span style=&quot;background-color: transparent;&quot;&gt;&lt;b&gt;过滤不健康节点&lt;/b&gt;&lt;b style=&quot;color: light-dark(rgb(0, 0, 0), rgb(255, 255, 255));&quot;&gt;:&lt;/b&gt;&lt;/span&gt;&lt;/div&gt;&lt;div style=&quot;color: light-dark(rgb(0, 0, 0), rgb(255, 255, 255));&quot;&gt;&lt;font style=&quot;background-color: transparent; color: light-dark(rgb(0, 0, 0), rgb(255, 255, 255));&quot;&gt;&amp;nbsp; &amp;nbsp; &amp;nbsp;过滤掉不满足最低资源要求或负载过高的Worker节点&lt;/font&gt;&lt;/div&gt;&lt;/font&gt;&lt;/div&gt;&lt;div style=&quot;&quot;&gt;&lt;font style=&quot;background-color: transparent; color: light-dark(rgb(0, 0, 0), rgb(255, 255, 255));&quot;&gt;&lt;br&gt;&lt;/font&gt;&lt;/div&gt;" style="text;strokeColor=none;align=left;fillColor=none;html=1;verticalAlign=middle;whiteSpace=wrap;rounded=0;" vertex="1" parent="1">
          <mxGeometry x="723.8600000000001" y="189" width="194.36" height="109" as="geometry" />
        </mxCell>
        <mxCell id="D6UFKBbYX6-Dkn4sudH9-34" value="&lt;font style=&quot;color: rgb(51, 0, 0); font-size: 13px;&quot;&gt;&lt;b&gt;&amp;nbsp; &amp;nbsp; &amp;nbsp; &amp;nbsp; &amp;nbsp;&amp;nbsp;&lt;/b&gt;&lt;/font&gt;&lt;font color=&quot;#330000&quot;&gt;&lt;span style=&quot;font-size: 13px;&quot;&gt;&lt;b&gt;节点智能选择&lt;/b&gt;&lt;/span&gt;&lt;/font&gt;" style="rounded=1;absoluteArcSize=1;arcSize=2;html=1;strokeColor=none;gradientColor=none;shadow=0;dashed=0;fontSize=12;fontColor=#9E9E9E;align=left;verticalAlign=top;spacing=10;spacingTop=-4;fillColor=#EFEBE9;" vertex="1" parent="1">
          <mxGeometry x="710.0000000000001" y="318" width="213.86999999999998" height="100" as="geometry" />
        </mxCell>
        <mxCell id="D6UFKBbYX6-Dkn4sudH9-35" value="&lt;div style=&quot;&quot;&gt;&lt;font style=&quot;background-color: transparent; color: light-dark(rgb(0, 0, 0), rgb(255, 255, 255)); font-size: 19px;&quot;&gt;▸&lt;/font&gt;&lt;span style=&quot;background-color: transparent;&quot;&gt;&lt;b&gt;最优节点调度&lt;/b&gt;&lt;b style=&quot;color: light-dark(rgb(0, 0, 0), rgb(255, 255, 255));&quot;&gt;:&lt;/b&gt;&lt;/span&gt;&lt;/div&gt;&lt;div style=&quot;&quot;&gt;&lt;font style=&quot;background-color: transparent;&quot;&gt;&lt;div style=&quot;&quot;&gt;&lt;span style=&quot;color: light-dark(rgb(0, 0, 0), rgb(255, 255, 255)); background-color: transparent;&quot;&gt;&amp;nbsp; &amp;nbsp; &amp;nbsp;&lt;/span&gt;&lt;span style=&quot;background-color: transparent;&quot;&gt;自动选择资源评分最高的Worker执行任务&lt;/span&gt;&lt;/div&gt;&lt;/font&gt;&lt;/div&gt;" style="text;strokeColor=none;align=left;fillColor=none;html=1;verticalAlign=middle;whiteSpace=wrap;rounded=0;" vertex="1" parent="1">
          <mxGeometry x="722.9800000000001" y="349" width="196.14" height="70" as="geometry" />
        </mxCell>
        <mxCell id="D6UFKBbYX6-Dkn4sudH9-38" value="" style="image;aspect=fixed;html=1;points=[];align=center;fontSize=12;image=img/lib/azure2/other/Defender_Distributer_Control_System.svg;" vertex="1" parent="1">
          <mxGeometry x="443" y="300" width="25" height="25" as="geometry" />
        </mxCell>
        <mxCell id="D6UFKBbYX6-Dkn4sudH9-42" value="" style="image;html=1;image=img/lib/atlassian/Stride_Logo.svg;aspect=fixed;" vertex="1" parent="1">
          <mxGeometry x="723.8600000000001" y="153.16999999999996" width="25" height="20.65" as="geometry" />
        </mxCell>
        <mxCell id="D6UFKBbYX6-Dkn4sudH9-43" value="" style="html=1;verticalLabelPosition=bottom;align=center;labelBackgroundColor=#ffffff;verticalAlign=top;strokeWidth=2;strokeColor=#0080F0;shadow=0;dashed=0;shape=mxgraph.ios7.icons.reload;" vertex="1" parent="1">
          <mxGeometry x="724.37" y="322.5" width="24" height="27" as="geometry" />
        </mxCell>
        <mxCell id="D6UFKBbYX6-Dkn4sudH9-44" value="" style="image;aspect=fixed;html=1;points=[];align=center;fontSize=12;image=img/lib/azure2/compute/Restore_Points.svg;" vertex="1" parent="1">
          <mxGeometry x="724.06" y="428.36" width="25" height="24.56" as="geometry" />
        </mxCell>
        <mxCell id="D6UFKBbYX6-Dkn4sudH9-46" value="" style="sketch=0;aspect=fixed;pointerEvents=1;shadow=0;dashed=0;html=1;strokeColor=none;labelPosition=center;verticalLabelPosition=bottom;verticalAlign=top;align=center;shape=mxgraph.azure.startup_task;fillColor=#0078D7;" vertex="1" parent="1">
          <mxGeometry x="125" y="50" width="35" height="36.46" as="geometry" />
        </mxCell>
        <mxCell id="D6UFKBbYX6-Dkn4sudH9-49" value="&lt;font style=&quot;color: rgb(51, 0, 0); font-size: 14px;&quot;&gt;&lt;b style=&quot;&quot;&gt;&amp;nbsp; &amp;nbsp; &amp;nbsp; &amp;nbsp; &amp;nbsp; 高性能并发处理&lt;/b&gt;&lt;/font&gt;" style="rounded=1;absoluteArcSize=1;arcSize=2;html=1;strokeColor=#4284F3;gradientColor=none;shadow=0;dashed=1;fontSize=12;fontColor=#9E9E9E;align=left;verticalAlign=top;spacing=10;spacingTop=-4;fillColor=none;dashPattern=1 2;strokeWidth=2;" vertex="1" parent="1">
          <mxGeometry x="980" y="111.28" width="234.75" height="610" as="geometry" />
        </mxCell>
        <mxCell id="D6UFKBbYX6-Dkn4sudH9-50" value="&lt;font style=&quot;color: rgb(51, 0, 0); font-size: 13px;&quot;&gt;&lt;b&gt;&amp;nbsp; &amp;nbsp; &amp;nbsp; &amp;nbsp; &amp;nbsp;&amp;nbsp;&lt;/b&gt;&lt;/font&gt;&lt;font color=&quot;#330000&quot;&gt;&lt;span style=&quot;font-size: 13px;&quot;&gt;&lt;b&gt;批量处理优化&lt;/b&gt;&lt;/span&gt;&lt;/font&gt;" style="rounded=1;absoluteArcSize=1;arcSize=2;html=1;strokeColor=none;gradientColor=none;shadow=0;dashed=0;fontSize=12;fontColor=#9E9E9E;align=left;verticalAlign=top;spacing=10;spacingTop=-4;fillColor=#EFEBE9;" vertex="1" parent="1">
          <mxGeometry x="994.75" y="551.28" width="210" height="160" as="geometry" />
        </mxCell>
        <mxCell id="D6UFKBbYX6-Dkn4sudH9-51" value="&lt;div style=&quot;&quot;&gt;&lt;font style=&quot;background-color: transparent; color: light-dark(rgb(0, 0, 0), rgb(255, 255, 255)); font-size: 19px;&quot;&gt;▸&lt;/font&gt;&lt;span style=&quot;background-color: transparent;&quot;&gt;&lt;b&gt;MapReduce支持&lt;/b&gt;&lt;b style=&quot;color: light-dark(rgb(0, 0, 0), rgb(255, 255, 255));&quot;&gt;:&lt;/b&gt;&lt;/span&gt;&lt;/div&gt;&lt;div style=&quot;&quot;&gt;&lt;font style=&quot;background-color: transparent;&quot;&gt;&lt;font color=&quot;rgba(0, 0, 0, 0)&quot;&gt;&amp;nbsp; &amp;nbsp; &amp;nbsp;&lt;/font&gt;&lt;span style=&quot;background-color: transparent;&quot;&gt;支持将大任务拆分为多个子任务并行执行&lt;/span&gt;&lt;br&gt;&lt;/font&gt;&lt;/div&gt;" style="text;strokeColor=none;align=left;fillColor=none;html=1;verticalAlign=middle;whiteSpace=wrap;rounded=0;" vertex="1" parent="1">
          <mxGeometry x="1008.9300000000001" y="591.28" width="182.93" height="110" as="geometry" />
        </mxCell>
        <mxCell id="D6UFKBbYX6-Dkn4sudH9-52" value="&lt;font style=&quot;color: rgb(51, 0, 0); font-size: 13px;&quot;&gt;&lt;b&gt;&amp;nbsp; &amp;nbsp; &amp;nbsp; &amp;nbsp; &amp;nbsp; Actor模型&lt;/b&gt;&lt;/font&gt;" style="rounded=1;absoluteArcSize=1;arcSize=2;html=1;strokeColor=none;gradientColor=none;shadow=0;dashed=0;fontSize=12;fontColor=#9E9E9E;align=left;verticalAlign=top;spacing=10;spacingTop=-4;fillColor=#EFEBE9;" vertex="1" parent="1">
          <mxGeometry x="991.75" y="401.28" width="210.44974887118866" height="140" as="geometry" />
        </mxCell>
        <mxCell id="D6UFKBbYX6-Dkn4sudH9-53" value="&lt;div style=&quot;&quot;&gt;&lt;font style=&quot;background-color: transparent; color: light-dark(rgb(0, 0, 0), rgb(255, 255, 255)); font-size: 19px;&quot;&gt;▸&lt;/font&gt;&lt;span style=&quot;background-color: transparent;&quot;&gt;&lt;b&gt;高并发处理能力&lt;/b&gt;&lt;b style=&quot;color: light-dark(rgb(0, 0, 0), rgb(255, 255, 255));&quot;&gt;:&lt;/b&gt;&lt;/span&gt;&lt;/div&gt;&lt;div style=&quot;&quot;&gt;&lt;font style=&quot;background-color: transparent; color: light-dark(rgb(0, 0, 0), rgb(255, 255, 255));&quot;&gt;&amp;nbsp; &amp;nbsp; &amp;nbsp;具备高并发、非阻塞的处理能力&lt;/font&gt;&lt;/div&gt;&lt;div style=&quot;&quot;&gt;&lt;font style=&quot;background-color: transparent;&quot;&gt;&lt;div style=&quot;&quot;&gt;&lt;font style=&quot;color: light-dark(rgb(0, 0, 0), rgb(255, 255, 255)); background-color: transparent; font-size: 19px;&quot;&gt;▸&lt;/font&gt;&lt;span style=&quot;background-color: transparent;&quot;&gt;&lt;b&gt;&amp;nbsp;低延迟通信&lt;/b&gt;&lt;b style=&quot;color: light-dark(rgb(0, 0, 0), rgb(255, 255, 255));&quot;&gt;:&lt;/b&gt;&lt;/span&gt;&lt;/div&gt;&lt;div style=&quot;color: light-dark(rgb(0, 0, 0), rgb(255, 255, 255));&quot;&gt;&lt;font style=&quot;background-color: transparent; color: light-dark(rgb(0, 0, 0), rgb(255, 255, 255));&quot;&gt;&amp;nbsp; &amp;nbsp; &amp;nbsp;Actor模型使得Worker与Server之间的通信异步、高效&lt;/font&gt;&lt;/div&gt;&lt;br&gt;&lt;/font&gt;&lt;/div&gt;" style="text;strokeColor=none;align=left;fillColor=none;html=1;verticalAlign=middle;whiteSpace=wrap;rounded=0;" vertex="1" parent="1">
          <mxGeometry x="1007.07" y="430" width="177.68" height="120" as="geometry" />
        </mxCell>
        <mxCell id="D6UFKBbYX6-Dkn4sudH9-54" value="&lt;font style=&quot;color: rgb(51, 0, 0); font-size: 13px;&quot;&gt;&lt;b&gt;&amp;nbsp; &amp;nbsp; &amp;nbsp; &amp;nbsp; &amp;nbsp;&amp;nbsp;&lt;/b&gt;&lt;/font&gt;&lt;font color=&quot;#330000&quot;&gt;&lt;span style=&quot;font-size: 13px;&quot;&gt;&lt;b&gt;多级线程池&lt;/b&gt;&lt;/span&gt;&lt;/font&gt;" style="rounded=1;absoluteArcSize=1;arcSize=2;html=1;strokeColor=none;gradientColor=none;shadow=0;dashed=0;fontSize=12;fontColor=#9E9E9E;align=left;verticalAlign=top;spacing=10;spacingTop=-4;fillColor=#EFEBE9;" vertex="1" parent="1">
          <mxGeometry x="990" y="146.28" width="214.75" height="145" as="geometry" />
        </mxCell>
        <mxCell id="D6UFKBbYX6-Dkn4sudH9-55" value="&lt;div style=&quot;&quot;&gt;&lt;font style=&quot;background-color: transparent; color: light-dark(rgb(0, 0, 0), rgb(255, 255, 255)); font-size: 19px;&quot;&gt;▸&lt;/font&gt;&lt;span style=&quot;background-color: transparent;&quot;&gt;&lt;b&gt;多线程池隔离&lt;/b&gt;&lt;b style=&quot;color: light-dark(rgb(0, 0, 0), rgb(255, 255, 255));&quot;&gt;:&lt;/b&gt;&lt;/span&gt;&lt;/div&gt;&lt;div style=&quot;&quot;&gt;&lt;font style=&quot;background-color: transparent; color: light-dark(rgb(0, 0, 0), rgb(255, 255, 255));&quot;&gt;&amp;nbsp; &amp;nbsp; &amp;nbsp;Worker内部使用不同线程池处理核心调度、Actor通信和实际任务执行，避免互相干扰&lt;/font&gt;&lt;/div&gt;" style="text;strokeColor=none;align=left;fillColor=none;html=1;verticalAlign=middle;whiteSpace=wrap;rounded=0;" vertex="1" parent="1">
          <mxGeometry x="1003.8600000000001" y="173.82" width="194.36" height="109" as="geometry" />
        </mxCell>
        <mxCell id="D6UFKBbYX6-Dkn4sudH9-56" value="&lt;font style=&quot;color: rgb(51, 0, 0); font-size: 13px;&quot;&gt;&lt;b&gt;&amp;nbsp; &amp;nbsp; &amp;nbsp; &amp;nbsp; &amp;nbsp;&amp;nbsp;&lt;/b&gt;&lt;/font&gt;&lt;font color=&quot;#330000&quot;&gt;&lt;span style=&quot;font-size: 13px;&quot;&gt;&lt;b&gt;资源配置&lt;/b&gt;&lt;/span&gt;&lt;/font&gt;" style="rounded=1;absoluteArcSize=1;arcSize=2;html=1;strokeColor=none;gradientColor=none;shadow=0;dashed=0;fontSize=12;fontColor=#9E9E9E;align=left;verticalAlign=top;spacing=10;spacingTop=-4;fillColor=#EFEBE9;" vertex="1" parent="1">
          <mxGeometry x="990.8800000000001" y="296.28" width="213.86999999999998" height="100" as="geometry" />
        </mxCell>
        <mxCell id="D6UFKBbYX6-Dkn4sudH9-57" value="&lt;div style=&quot;&quot;&gt;&lt;font style=&quot;background-color: transparent; color: light-dark(rgb(0, 0, 0), rgb(255, 255, 255)); font-size: 19px;&quot;&gt;▸&lt;/font&gt;&lt;span style=&quot;background-color: transparent;&quot;&gt;&lt;b&gt;自动资源配置&lt;/b&gt;&lt;b style=&quot;color: light-dark(rgb(0, 0, 0), rgb(255, 255, 255));&quot;&gt;:&lt;/b&gt;&lt;/span&gt;&lt;/div&gt;&lt;div style=&quot;&quot;&gt;&lt;font style=&quot;background-color: transparent;&quot;&gt;&lt;div style=&quot;&quot;&gt;&lt;span style=&quot;color: light-dark(rgb(0, 0, 0), rgb(255, 255, 255)); background-color: transparent;&quot;&gt;&amp;nbsp; &amp;nbsp; &amp;nbsp;&lt;/span&gt;&lt;span style=&quot;background-color: transparent;&quot;&gt;Worker端的执行器线程池大小可根据CPU核心数进行默认配置，方便快速启动&lt;/span&gt;&lt;/div&gt;&lt;/font&gt;&lt;/div&gt;" style="text;strokeColor=none;align=left;fillColor=none;html=1;verticalAlign=middle;whiteSpace=wrap;rounded=0;" vertex="1" parent="1">
          <mxGeometry x="1003.8600000000001" y="327.28" width="196.14" height="70" as="geometry" />
        </mxCell>
        <mxCell id="D6UFKBbYX6-Dkn4sudH9-64" value="&lt;font style=&quot;color: rgb(51, 0, 0); font-size: 14px;&quot;&gt;&lt;b style=&quot;&quot;&gt;&amp;nbsp; &amp;nbsp; &amp;nbsp; &amp;nbsp; &amp;nbsp; 弹性伸缩保障&lt;/b&gt;&lt;/font&gt;" style="rounded=1;absoluteArcSize=1;arcSize=2;html=1;strokeColor=#4284F3;gradientColor=none;shadow=0;dashed=1;fontSize=12;fontColor=#9E9E9E;align=left;verticalAlign=top;spacing=10;spacingTop=-4;fillColor=none;dashPattern=1 2;strokeWidth=2;" vertex="1" parent="1">
          <mxGeometry x="1260" y="111.27999999999997" width="234.75" height="610" as="geometry" />
        </mxCell>
        <mxCell id="D6UFKBbYX6-Dkn4sudH9-65" value="&lt;font style=&quot;color: rgb(51, 0, 0); font-size: 13px;&quot;&gt;&lt;b&gt;&amp;nbsp; &amp;nbsp; &amp;nbsp; &amp;nbsp; &amp;nbsp;&amp;nbsp;&lt;/b&gt;&lt;/font&gt;&lt;font color=&quot;#330000&quot;&gt;&lt;span style=&quot;font-size: 13px;&quot;&gt;&lt;b&gt;负载均衡保障&lt;/b&gt;&lt;/span&gt;&lt;/font&gt;" style="rounded=1;absoluteArcSize=1;arcSize=2;html=1;strokeColor=none;gradientColor=none;shadow=0;dashed=0;fontSize=12;fontColor=#9E9E9E;align=left;verticalAlign=top;spacing=10;spacingTop=-4;fillColor=#EFEBE9;" vertex="1" parent="1">
          <mxGeometry x="1274.75" y="580" width="210" height="131.28" as="geometry" />
        </mxCell>
        <mxCell id="D6UFKBbYX6-Dkn4sudH9-66" value="&lt;div style=&quot;&quot;&gt;&lt;font style=&quot;background-color: transparent; color: light-dark(rgb(0, 0, 0), rgb(255, 255, 255)); font-size: 19px;&quot;&gt;▸&lt;/font&gt;&lt;span style=&quot;background-color: transparent;&quot;&gt;&lt;b&gt;调度时规避&lt;/b&gt;&lt;b style=&quot;color: light-dark(rgb(0, 0, 0), rgb(255, 255, 255));&quot;&gt;:&lt;/b&gt;&lt;/span&gt;&lt;/div&gt;&lt;div style=&quot;&quot;&gt;&lt;font style=&quot;background-color: transparent; color: light-dark(rgb(0, 0, 0), rgb(255, 255, 255));&quot;&gt;&amp;nbsp; &amp;nbsp; &amp;nbsp;通过在调度时过滤掉高负载节点，来从源头上规避产生任务堆积的热点问题&lt;br&gt;&lt;br&gt;&lt;/font&gt;&lt;/div&gt;" style="text;strokeColor=none;align=left;fillColor=none;html=1;verticalAlign=middle;whiteSpace=wrap;rounded=0;" vertex="1" parent="1">
          <mxGeometry x="1295.29" y="602.28" width="182.93" height="110" as="geometry" />
        </mxCell>
        <mxCell id="D6UFKBbYX6-Dkn4sudH9-67" value="&lt;font style=&quot;color: rgb(51, 0, 0); font-size: 13px;&quot;&gt;&lt;b&gt;&amp;nbsp; &amp;nbsp; &amp;nbsp; &amp;nbsp; &amp;nbsp;&amp;nbsp;&lt;/b&gt;&lt;/font&gt;&lt;font color=&quot;#330000&quot;&gt;&lt;span style=&quot;font-size: 13px;&quot;&gt;&lt;b&gt;多层重试策略&lt;/b&gt;&lt;/span&gt;&lt;/font&gt;" style="rounded=1;absoluteArcSize=1;arcSize=2;html=1;strokeColor=none;gradientColor=none;shadow=0;dashed=0;fontSize=12;fontColor=#9E9E9E;align=left;verticalAlign=top;spacing=10;spacingTop=-4;fillColor=#EFEBE9;" vertex="1" parent="1">
          <mxGeometry x="1272.75" y="426.28" width="210.44974887118866" height="140" as="geometry" />
        </mxCell>
        <mxCell id="D6UFKBbYX6-Dkn4sudH9-68" value="&lt;div style=&quot;&quot;&gt;&lt;font style=&quot;background-color: transparent; color: light-dark(rgb(0, 0, 0), rgb(255, 255, 255)); font-size: 19px;&quot;&gt;▸&lt;/font&gt;&lt;span style=&quot;background-color: transparent;&quot;&gt;&lt;b&gt;双层重试机制&lt;/b&gt;&lt;b style=&quot;color: light-dark(rgb(0, 0, 0), rgb(255, 255, 255));&quot;&gt;:&lt;/b&gt;&lt;/span&gt;&lt;/div&gt;&lt;div style=&quot;&quot;&gt;&lt;font style=&quot;background-color: transparent; color: light-dark(rgb(0, 0, 0), rgb(255, 255, 255));&quot;&gt;&amp;nbsp; &amp;nbsp; &amp;nbsp;支持任务实例级别的重试和子任务级别的重试&lt;/font&gt;&lt;span style=&quot;background-color: transparent; color: light-dark(rgb(0, 0, 0), rgb(255, 255, 255)); white-space: pre;&quot;&gt;&#x9;&lt;/span&gt;&lt;/div&gt;" style="text;strokeColor=none;align=left;fillColor=none;html=1;verticalAlign=middle;whiteSpace=wrap;rounded=0;" vertex="1" parent="1">
          <mxGeometry x="1288.07" y="466.28" width="177.68" height="90" as="geometry" />
        </mxCell>
        <mxCell id="D6UFKBbYX6-Dkn4sudH9-69" value="&lt;font style=&quot;color: rgb(51, 0, 0); font-size: 13px;&quot;&gt;&lt;b&gt;&amp;nbsp; &amp;nbsp; &amp;nbsp; &amp;nbsp; &amp;nbsp;&amp;nbsp;&lt;/b&gt;&lt;/font&gt;&lt;font color=&quot;#330000&quot;&gt;&lt;span style=&quot;font-size: 13px;&quot;&gt;&lt;b&gt;故障自动处理&lt;/b&gt;&lt;/span&gt;&lt;/font&gt;" style="rounded=1;absoluteArcSize=1;arcSize=2;html=1;strokeColor=none;gradientColor=none;shadow=0;dashed=0;fontSize=12;fontColor=#9E9E9E;align=left;verticalAlign=top;spacing=10;spacingTop=-4;fillColor=#EFEBE9;" vertex="1" parent="1">
          <mxGeometry x="1270" y="146.28" width="214.75" height="153.72" as="geometry" />
        </mxCell>
        <mxCell id="D6UFKBbYX6-Dkn4sudH9-70" value="&lt;div style=&quot;&quot;&gt;&lt;font style=&quot;background-color: transparent; color: light-dark(rgb(0, 0, 0), rgb(255, 255, 255)); font-size: 19px;&quot;&gt;▸&lt;/font&gt;&lt;span style=&quot;background-color: transparent;&quot;&gt;&lt;b&gt;失败跳过策略&lt;/b&gt;&lt;/span&gt;&lt;b style=&quot;background-color: transparent; color: light-dark(rgb(0, 0, 0), rgb(255, 255, 255));&quot;&gt;:&lt;/b&gt;&lt;/div&gt;&lt;div style=&quot;&quot;&gt;&lt;font style=&quot;background-color: transparent; color: light-dark(rgb(0, 0, 0), rgb(255, 255, 255));&quot;&gt;&amp;nbsp; &amp;nbsp; &amp;nbsp;当某个Worker下线或心跳超时，Server会将其正在运行的任务重新派发给其他健康的Worker节点&lt;/font&gt;&lt;/div&gt;&lt;div style=&quot;&quot;&gt;&lt;font style=&quot;background-color: transparent; color: light-dark(rgb(0, 0, 0), rgb(255, 255, 255));&quot;&gt;&lt;div&gt;&lt;font style=&quot;background-color: transparent; color: light-dark(rgb(0, 0, 0), rgb(255, 255, 255)); font-size: 19px;&quot;&gt;▸&lt;/font&gt;&lt;span style=&quot;background-color: transparent;&quot;&gt;&lt;b&gt;健康节点筛选&lt;/b&gt;&lt;/span&gt;&lt;b style=&quot;background-color: transparent; color: light-dark(rgb(0, 0, 0), rgb(255, 255, 255));&quot;&gt;:&lt;/b&gt;&lt;/div&gt;&lt;div&gt;&lt;font style=&quot;background-color: transparent; color: light-dark(rgb(0, 0, 0), rgb(255, 255, 255));&quot;&gt;&amp;nbsp; &amp;nbsp; &amp;nbsp;基于健康度指标选择一个最优的Worker节点&lt;/font&gt;&lt;/div&gt;&lt;/font&gt;&lt;/div&gt;&lt;div style=&quot;&quot;&gt;&lt;font style=&quot;background-color: transparent; color: light-dark(rgb(0, 0, 0), rgb(255, 255, 255));&quot;&gt;&lt;br&gt;&lt;br&gt;&lt;/font&gt;&lt;/div&gt;" style="text;strokeColor=none;align=left;fillColor=none;html=1;verticalAlign=middle;whiteSpace=wrap;rounded=0;" vertex="1" parent="1">
          <mxGeometry x="1283.86" y="197.28" width="194.36" height="99.72" as="geometry" />
        </mxCell>
        <mxCell id="D6UFKBbYX6-Dkn4sudH9-71" value="&lt;font style=&quot;color: rgb(51, 0, 0); font-size: 13px;&quot;&gt;&lt;b&gt;&amp;nbsp; &amp;nbsp; &amp;nbsp; &amp;nbsp; &amp;nbsp;&amp;nbsp;&lt;/b&gt;&lt;/font&gt;&lt;font color=&quot;#330000&quot;&gt;&lt;span style=&quot;font-size: 13px;&quot;&gt;&lt;b&gt;优雅降级机制&lt;/b&gt;&lt;/span&gt;&lt;/font&gt;" style="rounded=1;absoluteArcSize=1;arcSize=2;html=1;strokeColor=none;gradientColor=none;shadow=0;dashed=0;fontSize=12;fontColor=#9E9E9E;align=left;verticalAlign=top;spacing=10;spacingTop=-4;fillColor=#EFEBE9;" vertex="1" parent="1">
          <mxGeometry x="1270.88" y="313.28" width="213.87" height="103.72" as="geometry" />
        </mxCell>
        <mxCell id="D6UFKBbYX6-Dkn4sudH9-72" value="&lt;div style=&quot;&quot;&gt;&lt;font style=&quot;background-color: transparent; color: light-dark(rgb(0, 0, 0), rgb(255, 255, 255)); font-size: 19px;&quot;&gt;▸&lt;/font&gt;&lt;span style=&quot;background-color: transparent;&quot;&gt;&lt;b&gt;&amp;nbsp;系统自保护&lt;/b&gt;&lt;b style=&quot;color: light-dark(rgb(0, 0, 0), rgb(255, 255, 255));&quot;&gt;:&lt;/b&gt;&lt;/span&gt;&lt;/div&gt;&lt;div style=&quot;&quot;&gt;&lt;font style=&quot;background-color: transparent;&quot;&gt;&lt;div style=&quot;&quot;&gt;&lt;span style=&quot;color: light-dark(rgb(0, 0, 0), rgb(255, 255, 255)); background-color: transparent;&quot;&gt;&amp;nbsp; &amp;nbsp; &amp;nbsp;&lt;/span&gt;&lt;span style=&quot;background-color: transparent;&quot;&gt;当Worker与所有Server都失联时，会主动停止正在执行的秒级/分钟级任务，防止空跑&lt;/span&gt;&lt;/div&gt;&lt;/font&gt;&lt;/div&gt;" style="text;strokeColor=none;align=left;fillColor=none;html=1;verticalAlign=middle;whiteSpace=wrap;rounded=0;" vertex="1" parent="1">
          <mxGeometry x="1283.8600000000001" y="344.28" width="196.14" height="70" as="geometry" />
        </mxCell>
        <mxCell id="D6UFKBbYX6-Dkn4sudH9-77" value="" style="sketch=0;points=[[0.015,0.015,0],[0.985,0.015,0],[0.985,0.985,0],[0.015,0.985,0],[0.25,0,0],[0.5,0,0],[0.75,0,0],[1,0.25,0],[1,0.5,0],[1,0.75,0],[0.75,1,0],[0.5,1,0],[0.25,1,0],[0,0.75,0],[0,0.5,0],[0,0.25,0]];verticalLabelPosition=bottom;html=1;verticalAlign=top;aspect=fixed;align=center;pointerEvents=1;shape=mxgraph.cisco19.wireless_bridge;fillColor=#005073;strokeColor=none;" vertex="1" parent="1">
          <mxGeometry x="1283" y="590" width="25" height="19.53" as="geometry" />
        </mxCell>
        <mxCell id="D6UFKBbYX6-Dkn4sudH9-78" value="&lt;font style=&quot;color: rgb(51, 0, 0); font-size: 13px;&quot;&gt;&lt;b&gt;&amp;nbsp; &amp;nbsp; &amp;nbsp; &amp;nbsp; &amp;nbsp;&amp;nbsp;&lt;/b&gt;&lt;/font&gt;&lt;font color=&quot;#330000&quot;&gt;&lt;span style=&quot;font-size: 13px;&quot;&gt;&lt;b&gt;线程池优化&lt;/b&gt;&lt;/span&gt;&lt;/font&gt;" style="rounded=1;absoluteArcSize=1;arcSize=2;html=1;strokeColor=none;gradientColor=none;shadow=0;dashed=0;fontSize=12;fontColor=#9E9E9E;align=left;verticalAlign=top;spacing=10;spacingTop=-4;fillColor=#EFEBE9;" vertex="1" parent="1">
          <mxGeometry x="710.44" y="580" width="214.75" height="130" as="geometry" />
        </mxCell>
        <mxCell id="D6UFKBbYX6-Dkn4sudH9-80" value="&lt;div style=&quot;&quot;&gt;&lt;font style=&quot;background-color: transparent; color: light-dark(rgb(0, 0, 0), rgb(255, 255, 255)); font-size: 19px;&quot;&gt;▸&lt;/font&gt;&lt;span style=&quot;background-color: transparent;&quot;&gt;&lt;b&gt;多线程池隔离&lt;/b&gt;&lt;b style=&quot;color: light-dark(rgb(0, 0, 0), rgb(255, 255, 255));&quot;&gt;:&lt;/b&gt;&lt;/span&gt;&lt;/div&gt;&lt;div style=&quot;&quot;&gt;&lt;font style=&quot;background-color: transparent; color: light-dark(rgb(0, 0, 0), rgb(255, 255, 255));&quot;&gt;&amp;nbsp; &amp;nbsp; &amp;nbsp;Worker端使用不同线程池处理不同类型请求，避免互相影响&lt;/font&gt;&lt;/div&gt;&lt;div style=&quot;&quot;&gt;&lt;font style=&quot;background-color: transparent;&quot;&gt;&lt;div style=&quot;&quot;&gt;&lt;br&gt;&lt;/div&gt;&lt;/font&gt;&lt;/div&gt;&lt;div style=&quot;&quot;&gt;&lt;font style=&quot;background-color: transparent; color: light-dark(rgb(0, 0, 0), rgb(255, 255, 255));&quot;&gt;&lt;br&gt;&lt;/font&gt;&lt;/div&gt;" style="text;strokeColor=none;align=left;fillColor=none;html=1;verticalAlign=middle;whiteSpace=wrap;rounded=0;" vertex="1" parent="1">
          <mxGeometry x="727.84" y="602.28" width="194.36" height="109" as="geometry" />
        </mxCell>
        <mxCell id="D6UFKBbYX6-Dkn4sudH9-83" value="" style="image;aspect=fixed;html=1;points=[];align=center;fontSize=12;image=img/lib/azure2/azure_ecosystem/Collaborative_Service.svg;" vertex="1" parent="1">
          <mxGeometry x="160" y="115" width="30" height="29.47" as="geometry" />
        </mxCell>
        <mxCell id="D6UFKBbYX6-Dkn4sudH9-84" value="" style="image;aspect=fixed;perimeter=ellipsePerimeter;html=1;align=center;shadow=0;dashed=0;spacingTop=3;image=img/lib/active_directory/server_farm.svg;" vertex="1" parent="1">
          <mxGeometry x="430" y="114" width="30" height="30" as="geometry" />
        </mxCell>
        <mxCell id="D6UFKBbYX6-Dkn4sudH9-85" value="" style="points=[];aspect=fixed;html=1;align=center;shadow=0;dashed=0;fillColor=#FF6A00;strokeColor=none;shape=mxgraph.alibaba_cloud.clb_classic_load_balancer_02;" vertex="1" parent="1">
          <mxGeometry x="710" y="114" width="30" height="30" as="geometry" />
        </mxCell>
        <mxCell id="D6UFKBbYX6-Dkn4sudH9-86" value="" style="sketch=0;outlineConnect=0;fontColor=#232F3E;gradientColor=none;fillColor=#E7157B;strokeColor=none;dashed=0;verticalLabelPosition=bottom;verticalAlign=top;align=center;html=1;fontSize=12;fontStyle=0;aspect=fixed;pointerEvents=1;shape=mxgraph.aws4.checklist_performance;" vertex="1" parent="1">
          <mxGeometry x="990.88" y="116.28" width="30" height="30" as="geometry" />
        </mxCell>
        <mxCell id="D6UFKBbYX6-Dkn4sudH9-87" value="" style="outlineConnect=0;dashed=0;verticalLabelPosition=bottom;verticalAlign=top;align=center;html=1;shape=mxgraph.aws3.elastic_load_balancing;fillColor=#F58534;gradientColor=none;aspect=fixed;" vertex="1" parent="1">
          <mxGeometry x="1270" y="110" width="30" height="36.47" as="geometry" />
        </mxCell>
        <mxCell id="D6UFKBbYX6-Dkn4sudH9-88" value="" style="html=1;verticalLabelPosition=bottom;strokeWidth=2;strokeColor=#0080F0;fillColor=strokeColor;shadow=0;dashed=0;shape=mxgraph.ios7.icons.orientation_lock;pointerEvents=1" vertex="1" parent="1">
          <mxGeometry x="443" y="153" width="23.099999999999998" height="21" as="geometry" />
        </mxCell>
        <mxCell id="D6UFKBbYX6-Dkn4sudH9-89" value="" style="editableCssRules=.*;html=1;shape=image;verticalLabelPosition=bottom;labelBackgroundColor=#ffffff;verticalAlign=top;aspect=fixed;imageAspect=0;image=data:image/svg+xml,PHN2ZyB4bWxucz0iaHR0cDovL3d3dy53My5vcmcvMjAwMC9zdmciIHhtbG5zOnY9Imh0dHBzOi8vdmVjdGEuaW8vbmFubyIgd2lkdGg9IjE1Ljk2NTYwODU5NjgwMTc1OCIgaGVpZ2h0PSIxNC43ODkzMTUyMjM2OTM4NDgiIHZpZXdCb3g9IjAuMDQxMjc5MTMzNDA5MjYxNzAzIDAuMDAwMTYyNjU3NDY2NzE3MDY0MzggMTUuOTY1NjA4NTk2ODAxNzU4IDE0Ljc4OTMxNTIyMzY5Mzg0OCI+JiN4YTsJPHN0eWxlIHR5cGU9InRleHQvY3NzIj4mI3hhOwkuc3Qwe2ZpbGw6IzQyODVmNDt9JiN4YTsJPC9zdHlsZT4mI3hhOwk8cGF0aCBjbGFzcz0ic3QwIiBkPSJNMTUuNTgxIDkuODMyYTMuMTIgMy4xMiAwIDAgMC0xLjE0LTEuMTNoLS4xMmwtNS0yLjg4YTMuMTIgMy4xMiAwIDEgMC00LjY4LTIuNjZoMHY1LjhhMy4wOSAzLjA5IDAgMCAwLTMuMDYgMGgwYTMuMTMxIDMuMTMxIDAgMCAwIDMuMSA1LjQ0aDAgMGw1LjA4LTIuOTRhMy4wOSAzLjA5IDAgMCAwIC40MSAxLjUyIDMuMTMgMy4xMyAwIDEgMCA1LjQxLTMuMTV6bS05LjQgMS4zMnYtNS4zNmEzLjExIDMuMTEgMCAwIDAgLjUzLjI1bDQuNjEgMi42N2gwYTMuMTMgMy4xMyAwIDAgMC0uNTEuMzhsLTQuNTggMi42MmEzLjA4IDMuMDggMCAwIDAtLjA1LS41NnptLjgyLTkuMzZhMS41MiAxLjUyIDAgMSAxLS43NyAxLjMyIDEuNTIgMS41MiAwIDAgMSAuNzctMS4zMnptLTMuMSAxMS4yMWExLjUyIDEuNTIgMCAxIDEgLjU3LTIuMDcgMS41MiAxLjUyIDAgMCAxLS41NyAyLjA3em05Ljc2LS4zM2ExLjUyIDEuNTIgMCAwIDEtMi4wOS0uNWgwYTEuNTIxIDEuNTIxIDAgMSAxIDIuNjMtMS41M2wuMDcuMTJhMS41MiAxLjUyIDAgMCAxLS42MiAxLjkxeiIvPiYjeGE7PC9zdmc+;" vertex="1" parent="1">
          <mxGeometry x="443" y="410" width="32" height="30" as="geometry" />
        </mxCell>
        <mxCell id="D6UFKBbYX6-Dkn4sudH9-90" value="" style="sketch=0;outlineConnect=0;fontColor=#232F3E;gradientColor=none;fillColor=#E7157B;strokeColor=none;dashed=0;verticalLabelPosition=bottom;verticalAlign=top;align=center;html=1;fontSize=12;fontStyle=0;aspect=fixed;pointerEvents=1;shape=mxgraph.aws4.checklist_security;" vertex="1" parent="1">
          <mxGeometry x="727.84" y="587.27" width="25" height="25" as="geometry" />
        </mxCell>
        <mxCell id="D6UFKBbYX6-Dkn4sudH9-91" value="" style="image;sketch=0;aspect=fixed;html=1;points=[];align=center;fontSize=12;image=img/lib/mscae/Batch_Accounts.svg;" vertex="1" parent="1">
          <mxGeometry x="1008.9300000000001" y="559" width="25" height="24" as="geometry" />
        </mxCell>
        <mxCell id="D6UFKBbYX6-Dkn4sudH9-92" value="" style="outlineConnect=0;dashed=0;verticalLabelPosition=bottom;verticalAlign=top;align=center;html=1;shape=mxgraph.aws3.actuator;fillColor=#5294CF;gradientColor=none;aspect=fixed;" vertex="1" parent="1">
          <mxGeometry x="1003.86" y="402.8" width="25" height="29.41" as="geometry" />
        </mxCell>
        <mxCell id="D6UFKBbYX6-Dkn4sudH9-93" value="" style="sketch=0;outlineConnect=0;fontColor=#232F3E;gradientColor=none;fillColor=#E7157B;strokeColor=none;dashed=0;verticalLabelPosition=bottom;verticalAlign=top;align=center;html=1;fontSize=12;fontStyle=0;aspect=fixed;pointerEvents=1;shape=mxgraph.aws4.eventbridge_saas_partner_event_bus_resource;" vertex="1" parent="1">
          <mxGeometry x="1003.86" y="302.28" width="25" height="25" as="geometry" />
        </mxCell>
        <mxCell id="D6UFKBbYX6-Dkn4sudH9-94" value="" style="image;aspect=fixed;html=1;points=[];align=center;fontSize=12;image=img/lib/azure2/other/Disk_Pool.svg;" vertex="1" parent="1">
          <mxGeometry x="1003.86" y="153" width="25" height="24.26" as="geometry" />
        </mxCell>
        <mxCell id="D6UFKBbYX6-Dkn4sudH9-95" value="" style="sketch=0;pointerEvents=1;shadow=0;dashed=0;html=1;strokeColor=none;fillColor=#DF8C42;labelPosition=center;verticalLabelPosition=bottom;verticalAlign=top;align=center;outlineConnect=0;shape=mxgraph.veeam2.failover;aspect=fixed;" vertex="1" parent="1">
          <mxGeometry x="1283" y="153" width="25" height="25" as="geometry" />
        </mxCell>
        <mxCell id="D6UFKBbYX6-Dkn4sudH9-96" value="" style="editableCssRules=.*;html=1;shape=image;verticalLabelPosition=bottom;labelBackgroundColor=#ffffff;verticalAlign=top;aspect=fixed;imageAspect=0;image=data:image/svg+xml,PHN2ZyB4bWxucz0iaHR0cDovL3d3dy53My5vcmcvMjAwMC9zdmciIHhtbG5zOnY9Imh0dHBzOi8vdmVjdGEuaW8vbmFubyIgd2lkdGg9IjM3OC45OTYwMDM2OTA5NDU4IiBoZWlnaHQ9IjM3My40ODg4MDkyODIxODgyNCIgdmlld0JveD0iMCAwIDEwMC4yNzYwMDA5NzY1NjI1IDk4LjgxOTAwNzg3MzUzNTE2Ij4mI3hhOzxzdHlsZSB0eXBlPSJ0ZXh0L2NzcyI+JiN4YTsJLnN0MHtmaWxsOiM0Mjg1ZjQ7fSYjeGE7CS5zdDF7ZmlsbDojNjY5ZGY2O30mI3hhOwkuc3Qye2ZpbGw6I2FlY2JmYTt9JiN4YTs8L3N0eWxlPiYjeGE7CTxwYXRoIGNsYXNzPSJzdDAiIGQ9Ik0xNC42MTQgMjQuNzc1TDAgMzQuNzA5bDE0LjYxNCA5LjkzM1YzOS45NWMzLjU0NSAxLjQwMyA3LjcwNCAzLjY1OSAxMS4yMjYgNi44NDggNS4yMjQgNC43MyA5LjIzNSAxMS4yIDkuMjM1IDIwLjk2NXYxMS41MzJoMTBWNjcuNzYyYzAtMTIuNjQ0LTUuNjcxLTIyLjE3NS0xMi41MjMtMjguMzc5LTUuOTI5LTUuMzY4LTEyLjU5Mi04LjQ3LTE3LjkzNy0xMC4wMjR6Ii8+JiN4YTsJPHBhdGggY2xhc3M9InN0MSIgZD0iTTU0Ljg4NiAxOC41NTR2NjYuMDIxaC00LjUzNWwxMC4xOSAxNC4yNDQgMTAuMTktMTQuMjQ0aC01Ljg0NlYxOC41NTR6TTM5Ljk2MSAwbC05LjcwNSAxMy45NThoNC44MTl2NjUuMzM2aDEwVjEzLjk1N2g0LjU5MXoiLz4mI3hhOwk8cGF0aCBjbGFzcz0ic3QyIiBkPSJNNTQuODg2IDE4LjU1NHYxMi45YzAgMTMuNDY0IDYuNzE5IDIzLjE0OCAxNC4wNTIgMjkuMTI1IDUuOTI1IDQuODI5IDEyLjE0NiA3LjUxIDE2LjQxNCA4Ljg3NnY0LjcyMmwxNC45MjQtOS41NzEtMTQuOTI0LTkuNTcxdjMuNzI1Yy0zLjA0My0xLjI3OC02Ljc3LTMuMjIxLTEwLjA5OC01LjkzMy01LjY5OC00LjY0NC0xMC4zNjktMTEuMTEtMTAuMzY5LTIxLjM3M3YtMTIuOXoiLz4mI3hhOzwvc3ZnPg==;" vertex="1" parent="1">
          <mxGeometry x="1288.07" y="432.21" width="25" height="25" as="geometry" />
        </mxCell>
        <mxCell id="D6UFKBbYX6-Dkn4sudH9-97" value="" style="sketch=0;pointerEvents=1;shadow=0;dashed=0;html=1;strokeColor=none;fillColor=#434445;aspect=fixed;labelPosition=center;verticalLabelPosition=bottom;verticalAlign=top;align=center;outlineConnect=0;shape=mxgraph.vvd.on_demand_self_service;" vertex="1" parent="1">
          <mxGeometry x="1283" y="323.03" width="25" height="21.25" as="geometry" />
        </mxCell>
      </root>
    </mxGraphModel>
  </diagram>
</mxfile>
